<svg
  aria-hidden="true"
  style="position: absolute; width: 0; height: 0; overflow: hidden"
  version="1.1"
  xmlns="http://www.w3.org/2000/svg"
  xmlns:xlink="http://www.w3.org/1999/xlink"
>
  <defs>
    <symbol id="icon-dice" viewBox="0 0 32 32">
      <path
        d="M27 6h-16c-2.75 0-5 2.25-5 5v16c0 2.75 2.25 5 5 5h16c2.75 0 5-2.25 5-5v-16c0-2.75-2.25-5-5-5zM13 28c-1.657 0-3-1.343-3-3s1.343-3 3-3 3 1.343 3 3-1.343 3-3 3zM13 16c-1.657 0-3-1.343-3-3s1.343-3 3-3 3 1.343 3 3-1.343 3-3 3zM19 22c-1.657 0-3-1.343-3-3s1.343-3 3-3 3 1.343 3 3-1.343 3-3 3zM25 28c-1.657 0-3-1.343-3-3s1.343-3 3-3 3 1.343 3 3-1.343 3-3 3zM25 16c-1.657 0-3-1.343-3-3s1.343-3 3-3 3 1.343 3 3-1.343 3-3 3zM25.899 4c-0.467-2.275-2.491-4-4.899-4h-16c-2.75 0-5 2.25-5 5v16c0 2.408 1.725 4.432 4 4.899v-19.899c0-1.1 0.9-2 2-2h19.899z"
      ></path>
    </symbol>
    <symbol id="icon-trophy3" viewBox="0 0 32 32">
      <path
        d="M21.773 24.047c-0.801-1.571-2.049-2.787-3.536-3.406v-2.406l0.003-0.571c-0.001 0-0.002 0-0.003 0v-0.015c-0.724 0.141-1.472 0.218-2.237 0.218-0.711 0-1.405-0.068-2.081-0.191-0.047-0.009-0.095-0.016-0.142-0.027v0.003c-0.005-0.001-0.010-0.002-0.015-0.003v2.992c-0.763 0.317-1.462 0.793-2.071 1.393-0.022 0.021-0.044 0.041-0.066 0.063-0.067 0.068-0.131 0.139-0.196 0.209-0.044 0.048-0.089 0.095-0.132 0.144-0.038 0.044-0.074 0.090-0.111 0.135-0.067 0.081-0.134 0.161-0.198 0.245-0.005 0.007-0.011 0.015-0.016 0.022-0.274 0.362-0.525 0.755-0.746 1.18h0.008c-0.003 0.005-0.006 0.010-0.008 0.015h11.547z"
      ></path>
      <path d="M7.19 26v5.961l-0 0.024h0v0.015h17.619v-6z"></path>
      <path
        d="M31.146 1.837c-0.502-0.568-1.215-0.894-1.958-0.894h-2.984v-0.942h-20.407v0.942h-2.984c-0.743 0-1.457 0.326-1.958 0.895-0.61 0.691-0.873 1.69-0.743 2.817 0.023 0.495 0.273 3.082 2.951 4.923 1.546 1.063 3.027 1.539 4.34 1.746 1.813 2.833 4.985 4.712 8.598 4.712s6.785-1.879 8.598-4.712c1.314-0.207 2.794-0.683 4.34-1.746 2.677-1.841 2.928-4.428 2.951-4.923 0.13-1.127-0.133-2.126-0.743-2.817zM29.765 4.439l-0.008 0.053-0 0.064c-0.002 0.078-0.070 1.916-2.028 3.262-0.561 0.386-1.102 0.67-1.628 0.886-0.115 0.044-0.229 0.089-0.347 0.128 0.291-0.949 0.449-1.956 0.449-3.001v-2.755h2.984c0.094 0 0.232 0.030 0.358 0.172 0.205 0.232 0.285 0.666 0.219 1.19zM15.873 9.701l-2.104 1.171c-0.089 0.050-0.198 0.043-0.281-0.017s-0.122-0.162-0.103-0.261l0.463-2.363c0.017-0.089-0.012-0.18-0.078-0.241l-1.763-1.639c-0.074-0.069-0.102-0.175-0.071-0.272s0.116-0.167 0.217-0.179l2.39-0.29c0.090-0.011 0.167-0.067 0.206-0.149l1.014-2.183c0.043-0.092 0.135-0.151 0.237-0.151s0.194 0.059 0.237 0.151l1.014 2.183c0.038 0.082 0.116 0.139 0.206 0.149l2.39 0.29c0.101 0.012 0.186 0.082 0.217 0.179s0.004 0.203-0.070 0.272l-1.763 1.639c-0.066 0.061-0.096 0.153-0.079 0.241l0.464 2.363c0.020 0.1-0.020 0.202-0.103 0.261s-0.191 0.067-0.28 0.017l-2.104-1.171c-0.079-0.044-0.175-0.044-0.254 0zM4.271 7.818c-1.958-1.346-2.026-3.184-2.027-3.251l-0-0.065-0.008-0.064c-0.065-0.524 0.014-0.957 0.22-1.189 0.126-0.142 0.264-0.172 0.358-0.172h2.984v2.755c0 0.89 0.12 1.751 0.335 2.574 0.035 0.144 0.067 0.289 0.108 0.433-0.631-0.227-1.285-0.552-1.968-1.021z"
      ></path>
    </symbol>
    <symbol id="icon-trophy2" viewBox="0 0 32 32">
      <path
        d="M32 15.079h-2.682c-0.903 0-1.594-0.017-2.278 0.53-0.596 0.477-0.833 1.021-1.351 1.748l-0.788 1.093c-0.094 0.131-0.203 0.221-0.313 0.28s-0.218 0.084-0.33 0.084h-5.543c0.062-0.099 0.129-0.197 0.206-0.29l1.778-2.157c2.671-0.144 4.785-1.068 6.244-2.303 0.747-0.633 1.325-1.345 1.723-2.083 0.397-0.738 0.619-1.503 0.621-2.254 0-1.125 0-2.248 0-3.092 0-0.421 0-0.773 0-1.019s0-0.386 0-0.386v-0.929h-4.752v-1.434h-16.928v1.434h-4.894v0.929c0 0 0 2.248 0 4.497 0.002 0.751 0.224 1.516 0.621 2.254 0.598 1.106 1.599 2.158 2.971 2.962 1.363 0.798 3.094 1.345 5.147 1.432l1.77 2.148c0.077 0.093 0.144 0.191 0.206 0.29h-5.686c-0.111 0-0.219-0.026-0.33-0.084s-0.219-0.148-0.313-0.28l-0.788-1.093c-0.518-0.727-0.755-1.271-1.351-1.748-0.684-0.547-1.374-0.53-2.278-0.53h-2.681l1.059 2.399-1.059 2.37c0 0 3.445 0 3.475 0 0.755 0 1.135 0.879 1.431 1.311 0.689 1.007 0.888 1.525 1.431 1.948 0.715 0.556 1.134 0.476 2.066 0.476h5.417v0.935l-4.143 1.385v3.229h12.785v-3.228l-4.142-1.385v-0.935h5.275c0.932 0 1.351 0.080 2.067-0.476 0.543-0.422 0.742-0.941 1.43-1.948 0.296-0.433 0.676-1.311 1.43-1.311 0.031 0 3.477 0 3.477 0l-1.060-2.37 1.060-2.399zM24.535 6.16h2.894c0 0.863 0 2.215 0 3.568 0.002 0.372-0.119 0.859-0.398 1.373-0.415 0.772-1.175 1.598-2.275 2.241-0.652 0.381-1.424 0.7-2.317 0.912l0.358-0.434c1.122-1.362 1.738-3.053 1.737-4.796v-2.864zM6.256 12.646c-0.582-0.492-1.011-1.031-1.289-1.546s-0.399-1.001-0.397-1.373c0-1.125 0-2.248 0-3.092 0-0.171 0-0.331 0-0.476h3.036v2.863c-0.001 1.743 0.615 3.434 1.737 4.796l0.39 0.473c-1.477-0.322-2.635-0.934-3.478-1.646zM20.892 27.034v0.526h-9.643v-0.526l4.143-1.384v-2.066h1.358v2.066l4.142 1.384zM17.708 17.526c-0.32 0.388-0.563 0.825-0.726 1.289h-1.823c-0.162-0.464-0.406-0.901-0.725-1.289l-3.878-4.706c-0.896-1.088-1.378-2.423-1.378-3.797v-4.583h13.786v4.583c0 1.373-0.483 2.708-1.379 3.797l-3.877 4.706z"
      ></path>
      <path
        d="M18.319 8.593l-1.506-0.068-0.531-1.412c-0.044-0.117-0.156-0.196-0.282-0.196s-0.238 0.078-0.282 0.196l-0.53 1.412-1.506 0.068c-0.126 0.006-0.234 0.089-0.274 0.208s0.001 0.251 0.099 0.329l1.179 0.941-0.401 1.454c-0.033 0.12 0.012 0.25 0.113 0.324s0.239 0.077 0.343 0.008l1.259-0.831 1.259 0.831c0.105 0.069 0.241 0.066 0.343-0.008 0.101-0.074 0.146-0.203 0.113-0.324l-0.401-1.454 1.179-0.941c0.099-0.078 0.138-0.209 0.099-0.329s-0.148-0.202-0.273-0.208z"
      ></path>
    </symbol>
    <symbol id="icon-trophy" viewBox="0 0 32 32">
      <path
        d="M26 6v-4h-20v4h-6v4c0 3.314 2.686 6 6 6 0.627 0 1.232-0.096 1.801-0.275 1.443 2.063 3.644 3.556 6.199 4.075v6.2h-2c-2.209 0-4 1.791-4 4h16c0-2.209-1.791-4-4-4h-2v-6.2c2.555-0.519 4.756-2.012 6.199-4.075 0.568 0.179 1.173 0.275 1.801 0.275 3.314 0 6-2.686 6-6v-4h-6zM6 13.625c-1.999 0-3.625-1.626-3.625-3.625v-2h3.625v2c0 1.256 0.232 2.457 0.655 3.565-0.213 0.039-0.431 0.060-0.655 0.060zM29.625 10c0 1.999-1.626 3.625-3.625 3.625-0.224 0-0.442-0.021-0.655-0.060 0.423-1.107 0.655-2.309 0.655-3.565v-2h3.625v2z"
      ></path>
    </symbol>
    <symbol id="icon-eye" viewBox="0 0 32 32">
      <path
        d="M16 6c-6.979 0-13.028 4.064-16 10 2.972 5.936 9.021 10 16 10s13.027-4.064 16-10c-2.972-5.936-9.021-10-16-10zM23.889 11.303c1.88 1.199 3.473 2.805 4.67 4.697-1.197 1.891-2.79 3.498-4.67 4.697-2.362 1.507-5.090 2.303-7.889 2.303s-5.527-0.796-7.889-2.303c-1.88-1.199-3.473-2.805-4.67-4.697 1.197-1.891 2.79-3.498 4.67-4.697 0.122-0.078 0.246-0.154 0.371-0.228-0.311 0.854-0.482 1.776-0.482 2.737 0 4.418 3.582 8 8 8s8-3.582 8-8c0-0.962-0.17-1.883-0.482-2.737 0.124 0.074 0.248 0.15 0.371 0.228v0zM16 13c0 1.657-1.343 3-3 3s-3-1.343-3-3 1.343-3 3-3 3 1.343 3 3z"
      ></path>
    </symbol>
    <symbol id="icon-eye-blocked" viewBox="0 0 32 32">
      <path
        d="M29.561 0.439c-0.586-0.586-1.535-0.586-2.121 0l-6.318 6.318c-1.623-0.492-3.342-0.757-5.122-0.757-6.979 0-13.028 4.064-16 10 1.285 2.566 3.145 4.782 5.407 6.472l-4.968 4.968c-0.586 0.586-0.586 1.535 0 2.121 0.293 0.293 0.677 0.439 1.061 0.439s0.768-0.146 1.061-0.439l27-27c0.586-0.586 0.586-1.536 0-2.121zM13 10c1.32 0 2.44 0.853 2.841 2.037l-3.804 3.804c-1.184-0.401-2.037-1.521-2.037-2.841 0-1.657 1.343-3 3-3zM3.441 16c1.197-1.891 2.79-3.498 4.67-4.697 0.122-0.078 0.246-0.154 0.371-0.228-0.311 0.854-0.482 1.776-0.482 2.737 0 1.715 0.54 3.304 1.459 4.607l-1.904 1.904c-1.639-1.151-3.038-2.621-4.114-4.323z"
      ></path>
      <path
        d="M24 13.813c0-0.849-0.133-1.667-0.378-2.434l-10.056 10.056c0.768 0.245 1.586 0.378 2.435 0.378 4.418 0 8-3.582 8-8z"
      ></path>
      <path
        d="M25.938 9.062l-2.168 2.168c0.040 0.025 0.079 0.049 0.118 0.074 1.88 1.199 3.473 2.805 4.67 4.697-1.197 1.891-2.79 3.498-4.67 4.697-2.362 1.507-5.090 2.303-7.889 2.303-1.208 0-2.403-0.149-3.561-0.439l-2.403 2.403c1.866 0.671 3.873 1.036 5.964 1.036 6.978 0 13.027-4.064 16-10-1.407-2.81-3.504-5.2-6.062-6.938z"
      ></path>
    </symbol>
    <symbol id="icon-sun" viewBox="0 0 32 32">
      <path
        d="M16 26c1.105 0 2 0.895 2 2v2c0 1.105-0.895 2-2 2s-2-0.895-2-2v-2c0-1.105 0.895-2 2-2zM16 6c-1.105 0-2-0.895-2-2v-2c0-1.105 0.895-2 2-2s2 0.895 2 2v2c0 1.105-0.895 2-2 2zM30 14c1.105 0 2 0.895 2 2s-0.895 2-2 2h-2c-1.105 0-2-0.895-2-2s0.895-2 2-2h2zM6 16c0 1.105-0.895 2-2 2h-2c-1.105 0-2-0.895-2-2s0.895-2 2-2h2c1.105 0 2 0.895 2 2zM25.899 23.071l1.414 1.414c0.781 0.781 0.781 2.047 0 2.828s-2.047 0.781-2.828 0l-1.414-1.414c-0.781-0.781-0.781-2.047 0-2.828s2.047-0.781 2.828 0zM6.101 8.929l-1.414-1.414c-0.781-0.781-0.781-2.047 0-2.828s2.047-0.781 2.828 0l1.414 1.414c0.781 0.781 0.781 2.047 0 2.828s-2.047 0.781-2.828 0zM25.899 8.929c-0.781 0.781-2.047 0.781-2.828 0s-0.781-2.047 0-2.828l1.414-1.414c0.781-0.781 2.047-0.781 2.828 0s0.781 2.047 0 2.828l-1.414 1.414zM6.101 23.071c0.781-0.781 2.047-0.781 2.828 0s0.781 2.047 0 2.828l-1.414 1.414c-0.781 0.781-2.047 0.781-2.828 0s-0.781-2.047 0-2.828l1.414-1.414z"
      ></path>
      <path
        d="M16 8c-4.418 0-8 3.582-8 8s3.582 8 8 8c4.418 0 8-3.582 8-8s-3.582-8-8-8zM16 21c-2.761 0-5-2.239-5-5s2.239-5 5-5 5 2.239 5 5-2.239 5-5 5z"
      ></path>
    </symbol>
    <symbol id="icon-unmute" viewBox="0 0 32 32">
      <path
        d="M22.485 25.985c-0.384 0-0.768-0.146-1.061-0.439-0.586-0.586-0.586-1.535 0-2.121 4.094-4.094 4.094-10.755 0-14.849-0.586-0.586-0.586-1.536 0-2.121s1.536-0.586 2.121 0c2.55 2.55 3.954 5.94 3.954 9.546s-1.404 6.996-3.954 9.546c-0.293 0.293-0.677 0.439-1.061 0.439v0zM17.157 23.157c-0.384 0-0.768-0.146-1.061-0.439-0.586-0.586-0.586-1.535 0-2.121 2.534-2.534 2.534-6.658 0-9.192-0.586-0.586-0.586-1.536 0-2.121s1.535-0.586 2.121 0c3.704 3.704 3.704 9.731 0 13.435-0.293 0.293-0.677 0.439-1.061 0.439z"
      ></path>
      <path
        d="M13 30c-0.26 0-0.516-0.102-0.707-0.293l-7.707-7.707h-3.586c-0.552 0-1-0.448-1-1v-10c0-0.552 0.448-1 1-1h3.586l7.707-7.707c0.286-0.286 0.716-0.372 1.090-0.217s0.617 0.519 0.617 0.924v26c0 0.404-0.244 0.769-0.617 0.924-0.124 0.051-0.254 0.076-0.383 0.076z"
      ></path>
    </symbol>
    <symbol id="icon-mute" viewBox="0 0 32 32">
      <path
        d="M30 19.348v2.652h-2.652l-3.348-3.348-3.348 3.348h-2.652v-2.652l3.348-3.348-3.348-3.348v-2.652h2.652l3.348 3.348 3.348-3.348h2.652v2.652l-3.348 3.348 3.348 3.348z"
      ></path>
      <path
        d="M13 30c-0.26 0-0.516-0.102-0.707-0.293l-7.707-7.707h-3.586c-0.552 0-1-0.448-1-1v-10c0-0.552 0.448-1 1-1h3.586l7.707-7.707c0.286-0.286 0.716-0.372 1.090-0.217s0.617 0.519 0.617 0.924v26c0 0.404-0.244 0.769-0.617 0.924-0.124 0.051-0.254 0.076-0.383 0.076z"
      ></path>
    </symbol>
    <symbol id="icon-nng-logo" viewBox="0 0 32 32">
      <path d="M0 0v32h32v-32h-32zM16 30v-14h-14v-14h14v14h14v14h-14z"></path>
    </symbol>
    <symbol id="icon-moon" viewBox="0 0 32 32">
      <path
        d="M16 29.333c7.364 0 13.333-5.97 13.333-13.333 0-0.617-0.925-0.719-1.244-0.191-1.518 2.512-4.274 4.191-7.423 4.191-4.787 0-8.667-3.88-8.667-8.667 0-3.149 1.679-5.905 4.191-7.423 0.528-0.319 0.426-1.244-0.191-1.244-7.364 0-13.333 5.97-13.333 13.333s5.97 13.333 13.333 13.333z"
      ></path>
    </symbol>
    <symbol id="icon-moon2" viewBox="0 0 32 32">
      <path
        d="M16.428 28.912c-1.8 0-3.544-0.352-5.192-1.048-1.588-0.672-3.012-1.632-4.236-2.856s-2.184-2.648-2.856-4.236c-0.696-1.644-1.048-3.392-1.048-5.192 0-2.712 0.812-5.324 2.344-7.552 1.496-2.172 3.576-3.84 6.016-4.824 0.496-0.2 1.060-0.084 1.44 0.292 0.376 0.376 0.496 0.944 0.296 1.44-0.508 1.268-0.764 2.604-0.764 3.976 0 5.88 4.784 10.668 10.668 10.668 1.364 0 2.704-0.26 3.98-0.772 0.496-0.2 1.060-0.084 1.44 0.296 0.376 0.376 0.492 0.944 0.296 1.44-0.98 2.444-2.648 4.528-4.824 6.024-2.232 1.532-4.844 2.344-7.56 2.344zM9.876 7.152c-2.564 1.984-4.116 5.060-4.116 8.428 0 5.88 4.784 10.668 10.668 10.668 3.368 0 6.444-1.552 8.428-4.116-0.584 0.076-1.172 0.116-1.764 0.116-1.8 0-3.544-0.352-5.192-1.048-1.588-0.672-3.012-1.632-4.236-2.856s-2.184-2.648-2.856-4.236c-0.696-1.644-1.048-3.392-1.048-5.192 0-0.596 0.040-1.184 0.116-1.764z"
      ></path>
    </symbol>
    <symbol id="icon-moon3" viewBox="0 0 32 32">
      <path
        d="M28.090 15.809v0zM16.191 3.91v0zM28.333 16c0 6.811-5.522 12.333-12.333 12.333v2c7.916 0 14.333-6.417 14.333-14.333h-2zM16 28.333c-6.811 0-12.333-5.522-12.333-12.333h-2c0 7.916 6.417 14.333 14.333 14.333v-2zM3.667 16c0-6.811 5.522-12.333 12.333-12.333v-2c-7.916 0-14.333 6.417-14.333 14.333h2zM20.667 19c-4.234 0-7.667-3.433-7.667-7.667h-2c0 5.339 4.328 9.667 9.667 9.667v-2zM27.234 15.292c-1.344 2.224-3.783 3.708-6.567 3.708v2c3.513 0 6.588-1.875 8.279-4.674l-1.712-1.034zM13 11.333c0-2.784 1.484-5.223 3.708-6.567l-1.034-1.712c-2.799 1.691-4.674 4.766-4.674 8.279h2zM16 3.667c-0.118 0-0.256-0.053-0.357-0.158-0.085-0.089-0.105-0.172-0.109-0.206-0.006-0.042-0.003-0.162 0.14-0.248l1.034 1.712c0.671-0.405 0.887-1.148 0.808-1.731-0.082-0.607-0.56-1.368-1.516-1.368v2zM28.946 16.326c-0.086 0.143-0.207 0.146-0.248 0.14-0.034-0.005-0.118-0.024-0.206-0.109-0.105-0.1-0.158-0.239-0.158-0.357h2c0-0.955-0.762-1.434-1.368-1.516-0.584-0.079-1.326 0.137-1.731 0.808l1.712 1.034z"
      ></path>
    </symbol>
    <symbol id="icon-reward" viewBox="0 0 32 32">
      <path
        d="M5.714 0c-0.316-0.004-0.575 0.249-0.579 0.564-0.002 0.113 0.031 0.225 0.093 0.32l5.023 11.051c-3.066 1.92-5.109 5.328-5.109 9.208 0 5.989 4.868 10.857 10.857 10.857s10.857-4.868 10.857-10.857c0-3.879-2.042-7.287-5.109-9.208l5.021-11.047c0.175-0.263 0.103-0.618-0.16-0.792-0.096-0.064-0.209-0.097-0.324-0.095h-6.857c-0.26-0.003-0.489 0.168-0.558 0.418l-2.87 6.315-2.871-6.316c-0.070-0.25-0.299-0.421-0.558-0.418h-6.857zM6.601 1.143h1.030l4.485 9.861c-0.294 0.113-0.582 0.238-0.863 0.375l-4.652-10.236zM8.887 1.143h3.316l4.159 9.15c-0.12-0.004-0.241-0.007-0.362-0.007-0.964 0-1.899 0.127-2.789 0.363l-4.324-9.506zM19.796 1.143h3.316l-4.321 9.507c-0.366-0.097-0.738-0.176-1.118-0.235l-1.045-2.3 3.169-6.972zM24.367 1.143h1.030l-4.652 10.236c-0.28-0.137-0.567-0.261-0.86-0.374l4.482-9.862zM15.999 11.429c5.372 0 9.714 4.342 9.714 9.714s-4.342 9.714-9.714 9.714c-5.372 0-9.714-4.342-9.714-9.714s4.342-9.714 9.714-9.714zM15.999 13.014c-4.483 0-8.129 3.646-8.129 8.129s3.646 8.129 8.129 8.129c4.483 0 8.129-3.646 8.129-8.129s-3.646-8.129-8.129-8.129zM15.999 14.156c3.865 0 6.987 3.121 6.987 6.987s-3.121 6.986-6.987 6.986c-3.865 0-6.987-3.121-6.987-6.986s3.121-6.987 6.987-6.987zM16.020 17.173c-0.215-0.007-0.416 0.106-0.52 0.295l-1.025 1.856-2.179 0.466c-0.309 0.066-0.505 0.37-0.439 0.678 0.022 0.101 0.071 0.195 0.141 0.271l1.448 1.549-0.23 2.217c-0.032 0.314 0.196 0.595 0.51 0.627 0.103 0.011 0.207-0.007 0.301-0.051l1.921-0.899 2.037 0.904c0.072 0.032 0.15 0.049 0.228 0.049 0.316 0.002 0.573-0.253 0.575-0.568 0-0.025-0.001-0.049-0.004-0.073l-0.261-2.104 1.489-1.658c0.211-0.235 0.191-0.596-0.044-0.807-0.077-0.069-0.172-0.116-0.273-0.136l-2.082-0.402-1.117-1.929c-0.099-0.17-0.278-0.278-0.475-0.285v0zM16.012 18.904l0.741 1.28c0.083 0.143 0.224 0.243 0.386 0.275l1.346 0.26-0.988 1.1c-0.11 0.123-0.162 0.288-0.142 0.452l0.169 1.36-1.352-0.6c-0.151-0.067-0.324-0.065-0.474 0.005l-1.241 0.581 0.152-1.471c0.017-0.164-0.038-0.328-0.151-0.449l-0.936-1.001 1.446-0.31c0.162-0.035 0.301-0.138 0.381-0.282l0.663-1.2z"
      ></path>
    </symbol>
    <symbol id="icon-r1" viewBox="0 0 32 32">
      <path
        d="M16 13.333c-5.147 0-9.333 4.187-9.333 9.333s4.187 9.333 9.333 9.333 9.333-4.187 9.333-9.333-4.187-9.333-9.333-9.333zM17.333 27.333c0 0.368-0.299 0.667-0.667 0.667s-0.667-0.299-0.667-0.667v-8.253l-1.701 0.851c-0.331 0.164-0.729 0.031-0.895-0.299s-0.031-0.729 0.299-0.895l2.667-1.333c0.207-0.104 0.451-0.093 0.648 0.029 0.196 0.123 0.316 0.336 0.316 0.567v9.333z"
      ></path>
      <path
        d="M26.547 0.285c-0.125-0.179-0.329-0.285-0.547-0.285h-6.667c-0.281 0-0.533 0.177-0.628 0.443l-2.731 7.656-2.679-7.653c-0.093-0.268-0.347-0.445-0.629-0.445h-6.667c-0.217 0-0.421 0.107-0.547 0.284-0.124 0.177-0.155 0.404-0.080 0.611l4.417 12.144c0.067 0.184 0.212 0.331 0.396 0.397 0.075 0.028 0.153 0.041 0.231 0.041 0.113 0 0.228-0.029 0.329-0.087 1.603-0.909 3.419-1.391 5.253-1.391 0.067 0 0.132 0.005 0.197 0.009l0.184 0.011c0.013 0.001 0.027 0.001 0.039 0 0.103 0.012 0.209-0.027 0.309-0.083l0.284 0.096c0.047 0.016 0.093 0.027 0.141 0.031 1.444 0.156 2.823 0.601 4.099 1.325 0.101 0.057 0.216 0.087 0.329 0.087 0.077 0 0.156-0.013 0.231-0.041 0.184-0.068 0.329-0.213 0.396-0.397l4.417-12.144c0.075-0.203 0.044-0.431-0.080-0.608z"
      ></path>
    </symbol>
    <symbol id="icon-r2" viewBox="0 0 32 32">
      <path
        d="M16 13.333c-5.145 0-9.333 4.187-9.333 9.333s4.188 9.333 9.333 9.333 9.333-4.187 9.333-9.333-4.188-9.333-9.333-9.333zM18 26.667c0.368 0 0.667 0.299 0.667 0.667s-0.299 0.667-0.667 0.667h-4c-0.252 0-0.483-0.143-0.596-0.368s-0.088-0.496 0.063-0.697l2.8-3.733c0.688-0.919 1.067-2.055 1.067-3.201 0-0.735-0.597-1.333-1.333-1.333s-1.333 0.599-1.333 1.333v0.667c0 0.368-0.299 0.667-0.667 0.667s-0.667-0.299-0.667-0.667v-0.667c0-1.471 1.196-2.667 2.667-2.667s2.667 1.196 2.667 2.667c0 1.433-0.473 2.855-1.335 4l-1.999 2.667h2.667z"
      ></path>
      <path
        d="M26.545 0.284c-0.124-0.177-0.328-0.284-0.545-0.284h-6.667c-0.281 0-0.532 0.177-0.628 0.443l-2.731 7.659-2.679-7.655c-0.095-0.268-0.345-0.447-0.629-0.447h-6.667c-0.217 0-0.421 0.107-0.545 0.284-0.125 0.177-0.155 0.405-0.081 0.611l4.417 12.144c0.067 0.184 0.212 0.331 0.396 0.397 0.075 0.028 0.152 0.041 0.231 0.041 0.115 0 0.228-0.029 0.329-0.087 1.601-0.909 3.419-1.391 5.253-1.391 0.068 0 0.133 0.005 0.197 0.009l0.184 0.011h0.053c0.111 0 0.211-0.033 0.303-0.081l0.277 0.093c0.045 0.016 0.093 0.027 0.141 0.031 1.444 0.156 2.823 0.601 4.099 1.327 0.101 0.057 0.215 0.087 0.329 0.087 0.079 0 0.156-0.013 0.231-0.041 0.184-0.068 0.329-0.213 0.396-0.397l4.417-12.144c0.072-0.203 0.043-0.431-0.083-0.609z"
      ></path>
    </symbol>
    <symbol id="icon-r3" viewBox="0 0 32 32">
      <path
        d="M16 13.333c-5.145 0-9.333 4.187-9.333 9.333s4.188 9.333 9.333 9.333 9.333-4.187 9.333-9.333-4.188-9.333-9.333-9.333zM18.666 24v1.333c0 1.471-1.196 2.667-2.667 2.667s-2.667-1.196-2.667-2.667c0-0.368 0.299-0.667 0.667-0.667s0.667 0.299 0.667 0.667c0 0.735 0.597 1.333 1.333 1.333s1.333-0.599 1.333-1.333v-1.333c0-0.735-0.597-1.333-1.333-1.333h-0.667c-0.368 0-0.667-0.299-0.667-0.667s0.299-0.667 0.667-0.667h0.667c0.736 0 1.333-0.599 1.333-1.333s-0.597-1.333-1.333-1.333-1.333 0.599-1.333 1.333c0 0.368-0.299 0.667-0.667 0.667s-0.667-0.299-0.667-0.667c0-1.471 1.196-2.667 2.667-2.667s2.667 1.196 2.667 2.667c0 0.796-0.351 1.511-0.905 2 0.555 0.489 0.905 1.204 0.905 2z"
      ></path>
      <path
        d="M26.545 0.284c-0.124-0.177-0.328-0.284-0.545-0.284h-6.667c-0.281 0-0.532 0.177-0.628 0.443l-2.731 7.659-2.679-7.655c-0.095-0.268-0.345-0.447-0.629-0.447h-6.667c-0.217 0-0.421 0.107-0.545 0.284-0.125 0.177-0.155 0.405-0.081 0.611l4.417 12.144c0.067 0.184 0.212 0.331 0.396 0.397 0.075 0.028 0.152 0.041 0.231 0.041 0.115 0 0.228-0.029 0.329-0.087 1.601-0.909 3.419-1.391 5.253-1.391 0.068 0 0.133 0.005 0.197 0.009l0.184 0.011h0.053c0.111 0 0.211-0.033 0.303-0.081l0.277 0.093c0.045 0.016 0.093 0.027 0.141 0.031 1.444 0.156 2.823 0.601 4.099 1.327 0.101 0.057 0.215 0.087 0.329 0.087 0.079 0 0.156-0.013 0.231-0.041 0.184-0.068 0.329-0.213 0.396-0.397l4.417-12.144c0.072-0.203 0.043-0.431-0.083-0.609z"
      ></path>
    </symbol>
    <symbol id="icon-r4" viewBox="0 0 32 32">
      <path
        d="M26.547 0.285c-0.125-0.179-0.329-0.285-0.547-0.285h-6.667c-0.281 0-0.533 0.177-0.628 0.443l-2.731 7.656-2.679-7.653c-0.093-0.268-0.347-0.445-0.629-0.445h-6.667c-0.217 0-0.421 0.107-0.547 0.284-0.124 0.177-0.155 0.404-0.080 0.611l4.417 12.144c0.067 0.184 0.212 0.331 0.396 0.397 0.075 0.028 0.153 0.041 0.231 0.041 0.113 0 0.228-0.029 0.329-0.087 1.603-0.909 3.419-1.391 5.253-1.391 0.067 0 0.132 0.005 0.197 0.009l0.184 0.011c0.015 0.001 0.027 0.001 0.039 0 0.104 0.012 0.209-0.027 0.309-0.083l0.283 0.096c0.047 0.016 0.093 0.027 0.141 0.031 1.444 0.156 2.823 0.601 4.099 1.325 0.101 0.057 0.216 0.087 0.329 0.087 0.077 0 0.156-0.013 0.231-0.041 0.184-0.068 0.329-0.213 0.396-0.397l4.417-12.144c0.076-0.203 0.045-0.431-0.079-0.608z"
      ></path>
      <path
        d="M16 13.333c-5.147 0-9.333 4.187-9.333 9.333s4.187 9.333 9.333 9.333 9.333-4.187 9.333-9.333-4.187-9.333-9.333-9.333zM21.738 21.197l-2.863 2.179 1.16 3.76c0.085 0.279-0.020 0.581-0.26 0.747s-0.56 0.155-0.789-0.027l-2.98-2.352-2.919 2.348c-0.121 0.097-0.269 0.147-0.417 0.147-0.129 0-0.257-0.037-0.371-0.112-0.243-0.163-0.352-0.463-0.269-0.741l1.105-3.765-2.868-2.183c-0.228-0.173-0.32-0.472-0.228-0.744 0.091-0.272 0.345-0.453 0.632-0.453h3.52l1.181-3.544c0.181-0.544 1.084-0.544 1.264 0l1.177 3.544h3.52c0.285 0 0.54 0.183 0.632 0.453 0.091 0.271 0 0.571-0.228 0.744z"
      ></path>
    </symbol>
    <symbol id="icon-trophy-color" viewBox="0 0 32 32">
      <path
        fill="#ffba00"
        style="fill: var(--color1, #ffba00)"
        d="M17.304 2.659v1.956h12.684c-0.363 3.185-2.471 5.636-5.009 5.636h-7.675v1.956h7.675c1.918 0 3.707-0.921 5.038-2.593 1.279-1.606 1.983-3.729 1.983-5.978v-0.978c0 0-14.696 0-14.696 0z"
      ></path>
      <path
        fill="#fde09c"
        style="fill: var(--color2, #fde09c)"
        d="M7.021 10.251c-2.538 0-4.646-2.451-5.009-5.636h12.684v-1.956h-14.696v0.978c0 2.248 0.704 4.371 1.983 5.978 1.331 1.672 3.12 2.593 5.038 2.593h7.675v-1.956h-7.675z"
      ></path>
      <path
        fill="#ffba00"
        style="fill: var(--color1, #ffba00)"
        d="M17.504 27.15v-8.738h-2.156l0.652 8.738z"
      ></path>
      <path
        fill="#fde09c"
        style="fill: var(--color2, #fde09c)"
        d="M14.495 18.412h1.504v8.738h-1.504v-8.738z"
      ></path>
      <path
        fill="#ff8e00"
        style="fill: var(--color3, #ff8e00)"
        d="M22.396 28.456v-2.566h-6.396l-1.304 3.87z"
      ></path>
      <path
        fill="#ffba00"
        style="fill: var(--color1, #ffba00)"
        d="M16 25.89h-6.396v2.566l6.396 1.304z"
      ></path>
      <path
        fill="#983300"
        style="fill: var(--color4, #983300)"
        d="M25.852 30.201c0-0.964-0.781-1.745-1.745-1.745h-8.107v2.566h9.852v-0.821z"
      ></path>
      <path
        fill="#d5681e"
        style="fill: var(--color5, #d5681e)"
        d="M9.604 28.456h-1.71c-0.964 0-1.745 0.781-1.745 1.745v0.821h9.852v-2.566h-6.396z"
      ></path>
      <path
        fill="#ff8e00"
        style="fill: var(--color3, #ff8e00)"
        d="M24.979 11.49v-10.512h-8.979l-1.304 9.001 1.304 10.456h0.034c4.94 0 8.945-4.005 8.945-8.945z"
      ></path>
      <path
        fill="#ffba00"
        style="fill: var(--color1, #ffba00)"
        d="M7.021 0.978v10.512c0 4.94 4.005 8.945 8.945 8.945h0.034v-19.457h-8.979z"
      ></path>
      <path
        fill="#ffba00"
        style="fill: var(--color1, #ffba00)"
        d="M19.79 8.931l-2.619-0.381-1.171-2.373-1.304 3.421 1.304 2.556 2.342 1.231-0.447-2.608z"
      ></path>
      <path
        fill="#fde09c"
        style="fill: var(--color2, #fde09c)"
        d="M14.829 8.551l-2.619 0.381 1.895 1.847-0.447 2.608 2.342-1.231v-5.977z"
      ></path>
    </symbol>
    <symbol id="icon-trophy5" viewBox="0 0 32 32">
      <path d="M7.619 29.853h16.693v2.078h-16.693v-2.078z"></path>
      <path
        d="M26.281 3.74l0.731-3.671h-22.024l0.731 3.671h-5.72v1.374c0 2.971 0.956 5.782 2.765 8.13 1.671 2.169 4.005 3.792 6.605 4.603 1.242 1.67 3.103 2.96 5.245 3.358v3.107h-4.918v3.463h12.537v-3.463h-4.849v-3.107c2.145-0.398 4.009-1.689 5.25-3.36 2.598-0.811 4.93-2.433 6.599-4.601 1.809-2.348 2.765-5.159 2.765-8.13v-1.374h-5.719zM2.862 6.511h3.411l1.521 7.607c-2.67-1.652-4.511-4.49-4.932-7.607zM16 19.255v-2.078c1.936 0 3.639-1.702 4.014-3.292l2.022 0.478c-0.568 2.405-2.981 4.892-6.037 4.892zM24.208 14.117l1.52-7.606h3.41c-0.421 3.117-2.26 5.954-4.93 7.606z"
      ></path>
    </symbol>
    <symbol id="icon-star" viewBox="0 0 32 32">
      <path
        d="M31.883 12.208c-0.254-0.782-0.882-1.367-1.679-1.565l-7.891-1.963-4.305-6.898c-0.435-0.697-1.186-1.114-2.007-1.114s-1.572 0.416-2.007 1.113l-4.305 6.898-7.891 1.963c-0.798 0.198-1.425 0.783-1.679 1.565s-0.090 1.624 0.439 2.253l5.231 6.226-0.572 8.111c-0.058 0.82 0.305 1.598 0.969 2.081 0.678 0.493 1.54 0.578 2.279 0.279l7.538-3.051 7.538 3.051c0.735 0.298 1.598 0.216 2.279-0.279 0.665-0.483 1.027-1.261 0.97-2.081l-0.572-8.111 5.231-6.226c0.529-0.629 0.693-1.472 0.439-2.253zM29.842 13.116l-5.503 6.55c-0.175 0.208-0.262 0.476-0.243 0.746l0.602 8.534c0.014 0.203-0.19 0.349-0.376 0.273l-7.93-3.209c-0.126-0.051-0.259-0.076-0.392-0.076s-0.267 0.025-0.392 0.076l-7.93 3.209c-0.187 0.075-0.391-0.070-0.376-0.273l0.602-8.534c0.019-0.271-0.068-0.539-0.243-0.746l-5.503-6.55c-0.061-0.073-0.080-0.171-0.051-0.261s0.102-0.158 0.195-0.181l8.302-2.065c0.264-0.066 0.491-0.231 0.635-0.461l4.529-7.258c0.050-0.081 0.137-0.129 0.233-0.129s0.182 0.048 0.233 0.129l4.529 7.258c0.144 0.23 0.372 0.396 0.635 0.461l8.302 2.065c0.092 0.023 0.165 0.091 0.195 0.181s0.010 0.188-0.051 0.261z"
      ></path>
      <path
        d="M16.554 6.7c-0.49-0.306-1.135-0.157-1.441 0.334l-2.85 4.567-5.224 1.299c-0.561 0.139-0.902 0.707-0.763 1.268s0.707 0.902 1.268 0.763l5.635-1.401c0.264-0.066 0.491-0.231 0.635-0.461l3.074-4.926c0.306-0.49 0.157-1.135-0.334-1.441z"
      ></path>
    </symbol>
    <symbol id="icon-eye-on" viewBox="0 0 32 32">
      <path
        d="M29.884 15.582c-2.996-5.538-8.249-8.889-14.062-8.889s-11.076 3.351-14.044 8.889l-0.249 0.418 0.231 0.427c2.996 5.538 8.249 8.889 14.062 8.889s11.076-3.307 14.062-8.889l0.231-0.427zM15.822 23.493c-5.004 0-9.6-2.791-12.267-7.493 2.667-4.702 7.262-7.493 12.267-7.493s9.547 2.8 12.258 7.493c-2.711 4.702-7.262 7.493-12.258 7.493z"
      ></path>
      <path
        d="M16.080 9.929c-3.349 0.025-6.053 2.746-6.053 6.098 0 3.368 2.73 6.098 6.098 6.098s6.098-2.73 6.098-6.098c0-0.009-0-0.019-0-0.028v0.001c-0.015-3.356-2.739-6.071-6.098-6.071-0.016 0-0.031 0-0.047 0h0.002zM16.080 20.347c-2.367-0.025-4.275-1.95-4.275-4.32 0-2.386 1.934-4.32 4.32-4.32 2.376 0 4.305 1.919 4.32 4.292v0.001c0 0.005 0 0.012 0 0.018 0 2.391-1.938 4.329-4.329 4.329-0.012 0-0.025-0-0.038-0h0.002z"
      ></path>
    </symbol>
    <symbol id="icon-eye-off" viewBox="0 0 32 32">
      <path
        d="M22.391 18.133c0.242-0.627 0.382-1.353 0.382-2.112 0-0.007 0-0.015-0-0.022v0.001c0-3.368-2.73-6.098-6.098-6.098v0c-0.757 0.001-1.481 0.141-2.148 0.396l0.041-0.014 1.431 1.476c0.197-0.033 0.425-0.053 0.657-0.053h0.001c0.003 0 0.006 0 0.009 0 2.378 0 4.309 1.918 4.329 4.291v0.002c-0.001 0.233-0.020 0.461-0.057 0.682l0.003-0.025z"
      ></path>
      <path
        d="M30.48 15.582c-2.996-5.538-8.249-8.889-14.062-8.889-1.667 0.004-3.268 0.28-4.763 0.787l0.105-0.031 1.431 1.44c0.967-0.26 2.078-0.412 3.223-0.418h0.003c5.004 0 9.556 2.791 12.267 7.493-1.027 1.781-2.324 3.285-3.853 4.509l-0.031 0.024 1.262 1.262c1.803-1.462 3.29-3.233 4.398-5.242l0.046-0.091 0.231-0.427z"
      ></path>
      <path
        d="M4.329 5.138l3.964 3.964c-2.505 1.629-4.518 3.814-5.901 6.387l-0.045 0.093-0.231 0.418 0.231 0.427c2.996 5.538 8.249 8.889 14.062 8.889 2.383-0 4.637-0.555 6.639-1.542l-0.088 0.039 4.444 4.444 1.556-1.333-23.111-23.111zM12.996 13.804l5.911 5.911c-0.632 0.397-1.399 0.634-2.221 0.64h-0.002c-0 0-0 0-0 0-2.391 0-4.329-1.938-4.329-4.329 0-0.009 0-0.019 0-0.028v0.001c0.011-0.814 0.248-1.571 0.65-2.213l-0.010 0.018zM11.707 12.516c-0.702 0.979-1.122 2.201-1.122 3.522 0 3.363 2.726 6.089 6.089 6.089 1.32 0 2.543-0.42 3.54-1.134l-0.018 0.012 1.422 1.422c-1.536 0.674-3.327 1.067-5.209 1.067v0c-5.004 0-9.556-2.791-12.267-7.493 1.328-2.322 3.167-4.212 5.373-5.562l0.067-0.038z"
      ></path>
    </symbol>
    <symbol id="icon-sound-on" viewBox="0 0 32 32">
      <path
        d="M17.891 2.788c0.462 0.216 0.776 0.677 0.776 1.211 0 0 0 0.001 0 0.001v-0 24c0 0 0 0 0 0 0 0.736-0.597 1.333-1.333 1.333-0.332 0-0.635-0.121-0.868-0.322l0.002 0.002-8.96-7.68h-3.507c-0.736 0-1.333-0.597-1.333-1.333v0-8c0-0.736 0.597-1.333 1.333-1.333v0h3.507l8.96-7.68c0.232-0.199 0.535-0.321 0.867-0.321 0.202 0 0.393 0.045 0.565 0.125l-0.008-0.003zM16 6.9l-7.133 6.113c-0.232 0.199-0.535 0.32-0.867 0.32-0 0-0 0-0 0h-2.667v5.333h2.667c0 0 0 0 0 0 0.332 0 0.635 0.121 0.868 0.322l-0.002-0.002 7.133 6.116v-18.204zM23.057 7.059c0.241-0.241 0.575-0.39 0.943-0.39s0.701 0.149 0.943 0.39v0l0.003 0.001 0.001 0.003 0.019 0.019c0.051 0.052 0.1 0.106 0.148 0.162l0.004 0.005c0.093 0.107 0.22 0.259 0.365 0.453 0.293 0.389 0.671 0.957 1.043 1.704 0.749 1.495 1.475 3.697 1.475 6.595s-0.725 5.1-1.475 6.596c-0.373 0.747-0.749 1.315-1.041 1.704-0.174 0.23-0.343 0.432-0.523 0.625l0.004-0.005-0.019 0.019-0.001 0.003h-0.001v0.001c-0.242 0.243-0.577 0.394-0.947 0.394-0.737 0-1.334-0.597-1.334-1.334 0-0.367 0.148-0.699 0.387-0.94l-0 0 0.007-0.005 0.053-0.060c0.053-0.060 0.136-0.16 0.24-0.297 0.281-0.375 0.544-0.8 0.768-1.247l0.022-0.049c0.584-1.171 1.192-2.968 1.192-5.404s-0.608-4.233-1.192-5.404c-0.247-0.496-0.511-0.921-0.808-1.318l0.016 0.022c-0.1-0.134-0.197-0.25-0.297-0.362l0.004 0.005-0.005-0.007c-0.238-0.241-0.384-0.572-0.384-0.937 0-0.368 0.149-0.702 0.391-0.943v0zM20.391 11.059c0.241-0.241 0.575-0.39 0.943-0.39s0.701 0.149 0.943 0.39v0l0.003 0.001 0.001 0.003 0.041 0.041 0.073 0.081c0.299 0.355 0.564 0.755 0.782 1.183l0.016 0.036c0.413 0.831 0.807 2.033 0.807 3.597s-0.392 2.767-0.808 3.596c-0.205 0.413-0.416 0.731-0.584 0.955-0.097 0.129-0.191 0.242-0.29 0.35l0.003-0.003-0.044 0.044c-0.242 0.243-0.576 0.393-0.945 0.393-0.737 0-1.334-0.597-1.334-1.334 0-0.367 0.148-0.7 0.388-0.941l-0 0c0.155-0.191 0.295-0.406 0.411-0.635l0.009-0.021c0.253-0.504 0.527-1.301 0.527-2.404s-0.275-1.9-0.525-2.404c-0.126-0.25-0.266-0.465-0.427-0.663l0.005 0.007c-0.24-0.241-0.388-0.573-0.388-0.94 0-0.368 0.149-0.701 0.39-0.943v0z"
      ></path>
    </symbol>
    <symbol id="icon-sound-off" viewBox="0 0 32 32">
      <path
        d="M17.891 2.788c0.462 0.216 0.776 0.677 0.776 1.211 0 0 0 0.001 0 0.001v-0 24c0 0 0 0 0 0 0 0.736-0.597 1.333-1.333 1.333-0.332 0-0.635-0.121-0.868-0.322l0.002 0.002-8.96-7.68h-3.507c-0.736 0-1.333-0.597-1.333-1.333v0-8c0-0.736 0.597-1.333 1.333-1.333v0h3.507l8.96-7.68c0.232-0.199 0.535-0.321 0.867-0.321 0.202 0 0.393 0.045 0.565 0.125l-0.008-0.003zM16 6.9l-7.133 6.113c-0.232 0.199-0.535 0.32-0.867 0.32-0 0-0 0-0 0h-2.667v5.333h2.667c0 0 0 0 0 0 0.332 0 0.635 0.121 0.868 0.322l-0.002-0.002 7.133 6.116v-18.204zM21.724 12.392c0.241-0.241 0.575-0.39 0.943-0.39s0.701 0.149 0.943 0.39l1.724 1.723 1.724-1.724c0.243-0.251 0.583-0.407 0.959-0.407 0.736 0 1.333 0.597 1.333 1.333 0 0.376-0.156 0.716-0.407 0.959l-1.724 1.724 1.724 1.724c0.232 0.24 0.374 0.566 0.374 0.926 0 0.736-0.597 1.333-1.333 1.333-0.36 0-0.687-0.143-0.927-0.375l-1.724-1.724-1.724 1.724c-0.24 0.232-0.566 0.374-0.926 0.374-0.736 0-1.333-0.597-1.333-1.333 0-0.36 0.143-0.687 0.375-0.927l1.724-1.724-1.724-1.724c-0.241-0.241-0.39-0.575-0.39-0.943s0.149-0.701 0.39-0.943v0z"
      ></path>
    </symbol>
    <symbol id="icon-moon3" viewBox="0 0 32 32">
      <path
        d="M14.69 3.735c-6.196 0.654-11.023 5.896-11.023 12.265 0 6.811 5.522 12.333 12.333 12.333 6.369 0 11.61-4.828 12.265-11.023-1.769 2.246-4.514 3.69-7.598 3.69-5.339 0-9.667-4.328-9.667-9.667 0-3.083 1.444-5.829 3.69-7.598zM1.667 16c0-7.916 6.417-14.333 14.333-14.333 0.955 0 1.434 0.762 1.516 1.368 0.079 0.584-0.137 1.326-0.808 1.731-2.224 1.344-3.708 3.783-3.708 6.567 0 4.234 3.433 7.667 7.667 7.667 2.784 0 5.223-1.484 6.567-3.708 0.405-0.671 1.148-0.887 1.731-0.808 0.607 0.082 1.368 0.56 1.368 1.516 0 7.916-6.417 14.333-14.333 14.333s-14.333-6.417-14.333-14.333z"
      ></path>
    </symbol>
    <symbol id="icon-sun3" viewBox="0 0 32 32">
      <path
        d="M16 0c0.736 0 1.333 0.597 1.333 1.333v4c0 0.736-0.597 1.333-1.333 1.333s-1.333-0.597-1.333-1.333v-4c0-0.736 0.597-1.333 1.333-1.333z"
      ></path>
      <path
        d="M9.333 16c0-3.682 2.985-6.667 6.667-6.667s6.667 2.985 6.667 6.667c0 3.682-2.985 6.667-6.667 6.667s-6.667-2.985-6.667-6.667zM16 12c-2.209 0-4 1.791-4 4s1.791 4 4 4c2.209 0 4-1.791 4-4s-1.791-4-4-4z"
      ></path>
      <path
        d="M27.314 6.572c0.521-0.521 0.521-1.365 0-1.886s-1.365-0.521-1.886 0l-2.829 2.828c-0.521 0.521-0.521 1.365 0 1.886s1.365 0.521 1.886 0l2.828-2.828z"
      ></path>
      <path
        d="M32 16c0 0.736-0.597 1.333-1.333 1.333h-4c-0.736 0-1.333-0.597-1.333-1.333s0.597-1.333 1.333-1.333h4c0.736 0 1.333 0.597 1.333 1.333z"
      ></path>
      <path
        d="M25.428 27.314c0.521 0.521 1.365 0.521 1.886 0s0.521-1.365 0-1.886l-2.828-2.828c-0.521-0.521-1.365-0.521-1.886 0s-0.521 1.365 0 1.886l2.829 2.828z"
      ></path>
      <path
        d="M16 32c-0.736 0-1.333-0.597-1.333-1.333v-4c0-0.736 0.597-1.333 1.333-1.333s1.333 0.597 1.333 1.333v4c0 0.736-0.597 1.333-1.333 1.333z"
      ></path>
      <path
        d="M4.686 25.428c-0.521 0.521-0.521 1.365 0 1.886s1.365 0.521 1.886 0l2.828-2.828c0.521-0.521 0.521-1.365 0-1.886s-1.365-0.521-1.886 0l-2.828 2.829z"
      ></path>
      <path
        d="M0 16c0-0.736 0.597-1.333 1.333-1.333h4c0.736 0 1.333 0.597 1.333 1.333s-0.597 1.333-1.333 1.333h-4c-0.736 0-1.333-0.597-1.333-1.333z"
      ></path>
      <path
        d="M6.572 4.686c-0.521-0.521-1.365-0.521-1.886 0s-0.521 1.365 0 1.886l2.828 2.828c0.521 0.521 1.365 0.521 1.886 0s0.521-1.365 0-1.886l-2.828-2.828z"
      ></path>
    </symbol>
    <symbol id="icon-sound-on3" viewBox="0 0 32 32">
      <path
        d="M13.867 2.4c1.538-2.050 4.8-0.963 4.8 1.6v24.162c0 2.577-3.292 3.655-4.816 1.578l-5.192-7.073h-3.325c-2.209 0-4-1.791-4-4v-5.333c0-2.209 1.791-4 4-4h3.333l5.2-6.933zM16 4l-5.2 6.933c-0.504 0.671-1.294 1.067-2.133 1.067h-3.333c-0.736 0-1.333 0.597-1.333 1.333v5.333c0 0.736 0.597 1.333 1.333 1.333h3.325c0.849 0 1.647 0.404 2.15 1.089l5.192 7.073v-24.162z"
      ></path>
      <path
        d="M21.618 5.566c-0.139-0.813 0.485-1.566 1.31-1.566 0.623 0 1.158 0.437 1.267 1.051 0.37 2.087 1.138 6.902 1.138 10.949s-0.768 8.862-1.138 10.949c-0.109 0.614-0.644 1.051-1.267 1.051-0.825 0-1.449-0.753-1.31-1.566 0.392-2.291 1.048-6.691 1.048-10.434s-0.657-8.143-1.048-10.434z"
      ></path>
      <path
        d="M28.547 6.667c-0.901 0-1.56 0.925-1.351 1.801 0.372 1.564 0.805 4.116 0.805 7.532s-0.432 5.968-0.805 7.532c-0.209 0.876 0.451 1.801 1.351 1.801 0.482 0 0.917-0.274 1.067-0.732 0.391-1.192 1.053-3.903 1.053-8.601s-0.662-7.409-1.053-8.601c-0.15-0.458-0.585-0.732-1.067-0.732z"
      ></path>
    </symbol>
    <symbol id="icon-sound-off3" viewBox="0 0 32 32">
      <path
        d="M18.667 4c0-2.563-3.262-3.65-4.8-1.6l-5.2 6.933h-3.333c-2.209 0-4 1.791-4 4v5.333c0 2.209 1.791 4 4 4h3.325l5.192 7.073c1.525 2.077 4.816 0.999 4.816-1.578v-24.162zM10.8 10.933l5.2-6.933v24.162l-5.192-7.073c-0.502-0.684-1.301-1.089-2.15-1.089h-3.325c-0.736 0-1.333-0.597-1.333-1.333v-5.333c0-0.736 0.597-1.333 1.333-1.333h3.333c0.839 0 1.63-0.395 2.133-1.067z"
      ></path>
      <path
        d="M28.391 11.428c0.521-0.521 1.365-0.521 1.886 0s0.521 1.365 0 1.886l-2.596 2.596 2.596 2.596c0.521 0.521 0.521 1.365 0 1.886s-1.365 0.521-1.886 0l-2.596-2.596-2.596 2.596c-0.521 0.521-1.365 0.521-1.886 0s-0.521-1.365 0-1.886l2.596-2.596-2.596-2.596c-0.521-0.521-0.521-1.365 0-1.886s1.365-0.521 1.886 0l2.596 2.596 2.596-2.596z"
      ></path>
    </symbol>
    <symbol id="icon-sound-plus" viewBox="0 0 32 32">
      <path
        d="M23.898 24.043c0.169 0 0.337-0.067 0.463-0.198 1.825-1.912 2.872-4.692 2.872-7.63s-1.047-5.718-2.871-7.629c-0.244-0.255-0.65-0.265-0.905-0.021s-0.265 0.65-0.021 0.905c1.6 1.676 2.518 4.135 2.518 6.746s-0.918 5.070-2.518 6.746c-0.244 0.255-0.234 0.66 0.021 0.905 0.124 0.119 0.283 0.177 0.442 0.177z"
      ></path>
      <path
        d="M21.77 22.068c0.161 0 0.323-0.061 0.447-0.182 1.424-1.39 2.241-3.457 2.241-5.671s-0.817-4.282-2.241-5.672c-0.253-0.246-0.657-0.242-0.905 0.012s-0.242 0.658 0.012 0.905c1.178 1.15 1.854 2.884 1.854 4.756s-0.676 3.605-1.854 4.755c-0.253 0.247-0.258 0.652-0.012 0.905 0.125 0.128 0.292 0.192 0.458 0.192z"
      ></path>
      <path
        d="M19.254 18.925c-0.271 0.227-0.307 0.63-0.081 0.902 0.127 0.151 0.308 0.229 0.492 0.229 0.145 0 0.29-0.049 0.41-0.148 1.006-0.841 1.607-2.222 1.607-3.693 0-1.493-0.615-2.885-1.645-3.725-0.274-0.224-0.677-0.18-0.9 0.092-0.223 0.274-0.182 0.677 0.092 0.9 0.735 0.599 1.174 1.62 1.174 2.733-0.001 1.096-0.431 2.109-1.149 2.71z"
      ></path>
      <path
        d="M15.379 8.023l-5.25 3.926h-2.736c-0.354 0-0.64 0.286-0.64 0.64v7.254c0 0.354 0.286 0.64 0.64 0.64h2.736l5.25 3.926c0.113 0.084 0.248 0.127 0.383 0.127 0.097 0 0.196-0.022 0.287-0.067 0.216-0.109 0.353-0.33 0.353-0.573v-15.36c0-0.243-0.137-0.464-0.353-0.573-0.216-0.107-0.477-0.084-0.67 0.060zM15.123 22.618l-4.397-3.288c-0.111-0.083-0.245-0.127-0.383-0.127h-2.309v-5.974h2.309c0.138 0 0.273-0.045 0.383-0.127l4.397-3.288v12.805z"
      ></path>
    </symbol>
    <symbol id="icon-sound-minus" viewBox="0 0 32 32">
      <path
        d="M22.87 15.616l2.907-2.911c0.25-0.251 0.25-0.655-0.001-0.906-0.25-0.249-0.655-0.25-0.906 0.001l-2.909 2.913-2.909-2.913c-0.25-0.25-0.655-0.25-0.906-0.001-0.25 0.25-0.25 0.655-0.001 0.906l2.907 2.911-2.907 2.91c-0.25 0.251-0.25 0.655 0.001 0.906 0.125 0.124 0.289 0.187 0.452 0.187s0.328-0.063 0.453-0.188l2.909-2.913 2.909 2.913c0.125 0.125 0.289 0.188 0.453 0.188s0.328-0.063 0.452-0.187c0.25-0.25 0.25-0.655 0.001-0.906l-2.907-2.91z"
      ></path>
      <path
        d="M14.491 24.358c0.097 0 0.196-0.022 0.287-0.067 0.216-0.109 0.353-0.33 0.353-0.573v-15.36c0-0.243-0.137-0.464-0.353-0.573-0.218-0.108-0.476-0.084-0.67 0.060l-5.248 3.926h-2.735c-0.354 0-0.64 0.286-0.64 0.64v7.254c0 0.354 0.286 0.64 0.64 0.64h2.735l5.248 3.926c0.113 0.084 0.248 0.127 0.384 0.127zM13.851 22.44l-4.395-3.288c-0.111-0.083-0.245-0.127-0.383-0.127h-2.308v-5.974h2.308c0.138 0 0.273-0.045 0.383-0.127l4.395-3.288v12.804z"
      ></path>
    </symbol>
    <symbol id="icon-sound-off5" viewBox="0 0 32 32">
      <path
        d="M13.732 27.432c-0.912 0-1.612-0.64-1.876-0.88-0.548-0.504-1.152-1.224-1.984-2.228l-2.592-3.112-2.004-0.4c-0.92-0.184-1.724-0.752-2.204-1.556v0c-1.208-2.012-1.208-4.508 0-6.52 0.484-0.804 1.288-1.372 2.204-1.556l2.004-0.4 2.592-3.112c0.836-1 1.436-1.724 1.984-2.228 0.328-0.3 1.32-1.208 2.56-0.756 1.244 0.448 1.424 1.784 1.484 2.22 0.1 0.736 0.1 1.68 0.1 2.984v12.216c0 1.304 0 2.244-0.1 2.984-0.060 0.436-0.24 1.772-1.484 2.22-0.24 0.088-0.468 0.124-0.684 0.124zM13.3 7.768c-0.404 0.432-0.912 1.044-1.384 1.612l-2.76 3.312c-0.28 0.34-0.676 0.572-1.108 0.66l-2.252 0.448c-0.184 0.036-0.344 0.152-0.44 0.312-0.7 1.164-0.7 2.612 0 3.776v0c0.096 0.16 0.256 0.276 0.44 0.312l2.256 0.452c0.432 0.088 0.824 0.32 1.108 0.66l2.76 3.312c0.472 0.564 0.98 1.176 1.384 1.612 0.032-0.592 0.032-1.388 0.032-2.124v-12.22c-0.004-0.736-0.004-1.532-0.036-2.124z"
      ></path>
      <path
        d="M20 21.332c-0.34 0-0.684-0.132-0.944-0.392-0.52-0.52-0.52-1.364 0-1.884l8-8c0.52-0.52 1.364-0.52 1.884 0s0.52 1.364 0 1.884l-8 8c-0.256 0.264-0.6 0.392-0.94 0.392z"
      ></path>
      <path
        d="M28 21.332c-0.34 0-0.684-0.132-0.944-0.392l-8-8c-0.52-0.52-0.52-1.364 0-1.884s1.364-0.52 1.884 0l8 8c0.52 0.52 0.52 1.364 0 1.884-0.256 0.264-0.6 0.392-0.94 0.392z"
      ></path>
    </symbol>
    <symbol id="icon-sound-on5" viewBox="0 0 32 32">
      <path
        d="M13.732 27.432c-0.912 0-1.612-0.64-1.876-0.88-0.548-0.504-1.152-1.224-1.984-2.228l-2.592-3.112-2.004-0.4c-0.92-0.184-1.724-0.752-2.204-1.556v0c-1.208-2.012-1.208-4.508 0-6.52 0.484-0.804 1.288-1.372 2.204-1.556l2.004-0.4 2.592-3.112c0.836-1 1.436-1.724 1.984-2.228 0.328-0.3 1.32-1.208 2.56-0.756 1.244 0.448 1.424 1.784 1.484 2.22 0.1 0.736 0.1 1.68 0.1 2.984v12.216c0 1.304 0 2.244-0.1 2.984-0.060 0.436-0.24 1.772-1.484 2.22-0.24 0.088-0.468 0.124-0.684 0.124zM13.3 7.768c-0.404 0.432-0.912 1.044-1.384 1.612l-2.76 3.312c-0.28 0.34-0.676 0.572-1.108 0.66l-2.252 0.448c-0.184 0.036-0.344 0.152-0.44 0.312-0.7 1.164-0.7 2.612 0 3.776v0c0.096 0.16 0.256 0.276 0.44 0.312l2.256 0.452c0.432 0.088 0.824 0.32 1.108 0.66l2.76 3.312c0.472 0.564 0.98 1.176 1.384 1.612 0.032-0.592 0.032-1.388 0.032-2.124v-12.22c-0.004-0.736-0.004-1.532-0.036-2.124z"
      ></path>
      <path
        d="M20.752 22.012c-0.336 0-0.676-0.128-0.936-0.384-0.524-0.516-0.532-1.36-0.016-1.884 0.992-1.008 1.54-2.344 1.532-3.764-0.004-1.416-0.56-2.748-1.564-3.752-0.52-0.52-0.52-1.364 0-1.884s1.364-0.52 1.884 0c0.744 0.744 1.324 1.612 1.728 2.58s0.612 1.996 0.616 3.044c0.004 1.052-0.196 2.076-0.592 3.048s-0.972 1.844-1.708 2.596c-0.256 0.264-0.6 0.4-0.944 0.4z"
      ></path>
      <path
        d="M26.268 24.816c-0.336 0-0.676-0.128-0.936-0.384-0.524-0.516-0.532-1.36-0.016-1.884 1.74-1.768 2.692-4.104 2.68-6.584-0.008-2.48-0.98-4.808-2.732-6.564-0.52-0.52-0.52-1.364 0-1.884s1.364-0.52 1.884 0c1.116 1.116 1.988 2.416 2.592 3.872s0.916 2.992 0.924 4.568c0.008 1.576-0.292 3.116-0.888 4.572-0.596 1.46-1.456 2.768-2.56 3.892-0.26 0.264-0.604 0.396-0.948 0.396z"
      ></path>
    </symbol>
    <symbol id="icon-sound-off6" viewBox="0 0 32 32">
      <path
        d="M14.492 24.36c0.096 0 0.196-0.024 0.288-0.068 0.216-0.108 0.352-0.332 0.352-0.572v-15.36c0-0.244-0.136-0.464-0.352-0.572-0.22-0.108-0.476-0.084-0.672 0.060l-5.248 3.924h-2.736c-0.352 0-0.64 0.288-0.64 0.64v7.252c0 0.352 0.288 0.64 0.64 0.64h2.736l5.248 3.924c0.112 0.088 0.248 0.132 0.384 0.132zM13.852 22.44l-4.396-3.288c-0.112-0.084-0.244-0.128-0.384-0.128h-2.308v-5.972h2.308c0.14 0 0.272-0.044 0.384-0.128l4.396-3.288v12.804z"
      ></path>
      <path
        d="M23.328 16.052l2.908-2.912c0.248-0.252 0.248-0.656 0-0.904-0.252-0.248-0.656-0.248-0.904 0l-2.908 2.912-2.908-2.912c-0.252-0.252-0.656-0.248-0.904 0-0.252 0.252-0.252 0.656 0 0.904l2.908 2.912-2.916 2.908c-0.248 0.252-0.248 0.656 0 0.904 0.124 0.124 0.288 0.188 0.452 0.188s0.328-0.064 0.452-0.188l2.908-2.912 2.908 2.912c0.124 0.124 0.288 0.188 0.452 0.188s0.328-0.064 0.452-0.188c0.252-0.252 0.252-0.656 0-0.904l-2.9-2.908z"
      ></path>
    </symbol>
    <symbol id="icon-sound-on6" viewBox="0 0 32 32">
      <path
        d="M14.492 24.36c0.096 0 0.196-0.024 0.288-0.068 0.216-0.108 0.352-0.332 0.352-0.572v-15.36c0-0.244-0.136-0.464-0.352-0.572-0.22-0.108-0.476-0.084-0.672 0.060l-5.248 3.924h-2.736c-0.352 0-0.64 0.288-0.64 0.64v7.252c0 0.352 0.288 0.64 0.64 0.64h2.736l5.248 3.924c0.112 0.088 0.248 0.132 0.384 0.132zM13.852 22.44l-4.396-3.288c-0.112-0.084-0.244-0.128-0.384-0.128h-2.308v-5.972h2.308c0.14 0 0.272-0.044 0.384-0.128l4.396-3.288v12.804z"
      ></path>
      <path
        d="M23.336 23.868c0.168 0 0.336-0.068 0.464-0.2 1.824-1.912 2.872-4.692 2.872-7.632 0-2.936-1.048-5.716-2.872-7.628-0.244-0.256-0.652-0.264-0.904-0.020-0.256 0.244-0.264 0.648-0.020 0.904 1.6 1.676 2.516 4.136 2.516 6.744 0 2.612-0.916 5.072-2.52 6.748-0.244 0.256-0.236 0.66 0.020 0.904 0.124 0.12 0.284 0.18 0.444 0.18z"
      ></path>
      <path
        d="M21.208 21.892c0.16 0 0.324-0.060 0.448-0.18 1.424-1.392 2.24-3.456 2.24-5.672s-0.816-4.28-2.24-5.672c-0.252-0.248-0.656-0.24-0.904 0.012s-0.24 0.656 0.012 0.904c1.18 1.152 1.856 2.884 1.856 4.756s-0.676 3.604-1.856 4.756c-0.252 0.248-0.256 0.652-0.012 0.904 0.124 0.128 0.288 0.192 0.456 0.192z"
      ></path>
      <path
        d="M18.692 18.752c-0.272 0.228-0.308 0.632-0.080 0.9 0.128 0.152 0.308 0.228 0.492 0.228 0.144 0 0.288-0.048 0.412-0.148 1.008-0.84 1.608-2.224 1.608-3.692 0-1.492-0.616-2.884-1.644-3.724-0.272-0.224-0.676-0.18-0.9 0.092s-0.18 0.676 0.092 0.9c0.736 0.6 1.172 1.62 1.172 2.732-0.004 1.096-0.432 2.112-1.152 2.712z"
      ></path>
    </symbol>
    <symbol id="icon-chess-board" viewBox="0 0 32 32">
      <path
        d="M21.714 0h-21.714v32h32v-32h-10.286zM20.571 28.335l-2.522 2.522h-1.241l3.763-3.763v1.241zM20.571 25.478l-5.379 5.379h-1.241l6.621-6.621v1.241zM10.286 15.192l-5.379 5.379h-1.241l6.621-6.621v1.241zM10.286 16.808v1.241l-2.522 2.522h-1.241l3.763-3.763zM10.286 19.665v0.906h-0.906l0.906-0.906zM11.429 24.808l3.094-3.094h1.241l-4.335 4.335v-1.241zM11.429 23.192v-1.478h1.478l-1.478 1.478zM11.429 27.665l5.951-5.951h1.241l-7.192 7.192v-1.241zM11.429 20.571v-9.143h9.143v9.143h-9.143zM11.429 4.237l3.094-3.094h1.241l-4.335 4.335v-1.241zM11.429 7.094l5.951-5.951h1.241l-7.192 7.192v-1.241zM20.571 7.763l-2.522 2.522h-1.241l3.763-3.763v1.241zM20.571 4.906l-5.379 5.379h-1.241l6.621-6.621v1.241zM21.714 17.379l5.951-5.951h1.241l-7.192 7.192v-1.241zM21.714 15.763v-1.241l3.094-3.094h1.241l-4.335 4.335zM21.714 12.906v-1.478h1.478l-1.478 1.478zM19.665 10.286l0.906-0.906v0.906h-0.906zM20.571 2.049l-8.237 8.237h-0.906v-0.335l8.808-8.808h0.335v0.906zM12.906 1.143l-1.478 1.478v-1.478h1.478zM1.143 1.143h9.143v9.143h-9.143v-9.143zM1.143 14.522l3.094-3.094h1.241l-4.335 4.335v-1.241zM1.143 17.379l5.951-5.951h1.241l-7.192 7.192v-1.241zM2.621 11.429l-1.478 1.478v-1.478h1.478zM1.143 20.237l8.808-8.808h0.335v0.906l-8.237 8.237h-0.906v-0.335zM10.286 30.857h-9.143v-9.143h9.143v9.143zM11.429 30.522l8.808-8.808h0.335v0.906l-8.237 8.237h-0.906v-0.335zM19.665 30.857l0.906-0.906v0.906h-0.906zM30.857 30.857h-9.143v-9.143h9.143v9.143zM30.857 18.049l-2.522 2.522h-1.241l3.763-3.763v1.241zM30.857 15.192l-5.379 5.379h-1.241l6.621-6.621v1.241zM29.951 20.571l0.906-0.906v0.906h-0.906zM30.857 12.335l-8.237 8.237h-0.906v-0.335l8.808-8.808h0.335v0.906zM21.714 10.286v-9.143h9.143v9.143h-9.143z"
      ></path>
    </symbol>
  </defs>
</svg>
