<svg aria-hidden="true" style="position: absolute; width: 0; height: 0; overflow: hidden" version="1.1"
  xmlns="http://www.w3.org/2000/svg" xmlns:xlink="http://www.w3.org/1999/xlink">
  <defs>
    <symbol id="icon-about" viewBox="0 0 32 32">
      <path
        d="M16 2.667c-7.364 0-13.333 5.969-13.333 13.333s5.97 13.333 13.333 13.333c7.364 0 13.333-5.97 13.333-13.333s-5.969-13.333-13.333-13.333zM16 26.667c-5.882 0-10.667-4.785-10.667-10.667s4.785-10.667 10.667-10.667c5.882 0 10.667 4.785 10.667 10.667s-4.785 10.667-10.667 10.667zM17.67 10.667c0 0.967-0.704 1.667-1.656 1.667-0.991 0-1.677-0.7-1.677-1.685 0-0.947 0.705-1.648 1.677-1.648 0.952 0 1.656 0.701 1.656 1.667zM14.67 14.667h2.667v8h-2.667v-8z">
      </path>
    </symbol>
    <symbol id="icon-search" viewBox="0 0 32 32">
      <path
        d="M14.36 24.4c-1.986 0-3.927-0.589-5.578-1.692s-2.938-2.671-3.698-4.506c-0.76-1.835-0.959-3.853-0.571-5.801s1.344-3.737 2.748-5.141 3.193-2.36 5.141-2.748c1.948-0.387 3.966-0.189 5.801 0.571s3.403 2.047 4.506 3.698c1.103 1.651 1.692 3.592 1.692 5.578 0 1.318-0.26 2.624-0.764 3.842s-1.244 2.325-2.176 3.257c-0.932 0.932-2.039 1.672-3.257 2.176s-2.524 0.764-3.842 0.764zM14.36 6.333c-1.582 0-3.129 0.469-4.445 1.348s-2.341 2.128-2.946 3.59c-0.606 1.462-0.764 3.070-0.455 4.622s1.071 2.977 2.189 4.096c1.119 1.119 2.544 1.881 4.096 2.189s3.16 0.15 4.622-0.455c1.462-0.606 2.711-1.631 3.59-2.947s1.348-2.862 1.348-4.445c0-2.122-0.843-4.157-2.343-5.657s-3.535-2.343-5.657-2.343z">
      </path>
      <path
        d="M26.667 27.667c-0.131 0.001-0.262-0.025-0.383-0.075s-0.231-0.124-0.324-0.218l-5.507-5.507c-0.177-0.19-0.273-0.44-0.268-0.699s0.11-0.506 0.293-0.689c0.183-0.183 0.43-0.288 0.689-0.293s0.51 0.092 0.699 0.268l5.507 5.507c0.187 0.187 0.292 0.442 0.292 0.707s-0.105 0.519-0.292 0.707c-0.092 0.093-0.202 0.168-0.324 0.218s-0.252 0.076-0.383 0.075z">
      </path>
    </symbol>
    <symbol id="icon-library" viewBox="0 0 32 32">
      <path
        d="M27.068 9.504l-1.968-0.344c0.096-0.536-0.052-1.084-0.404-1.504s-0.868-0.656-1.412-0.656h-14.568c-0.544 0-1.060 0.24-1.412 0.656s-0.5 0.964-0.404 1.504l-1.968 0.344c-0.196-1.12 0.112-2.264 0.844-3.136s1.804-1.372 2.944-1.372h14.564c1.14 0 2.212 0.5 2.944 1.372 0.728 0.876 1.036 2.016 0.84 3.136z">
      </path>
      <path
        d="M7.672 6.108c-0.040-0.38-0.064-0.572-0.064-0.768-0.004-1.88 1.404-3.452 3.276-3.652 0.196-0.020 0.388-0.020 0.768-0.020h8.692c0.384 0 0.576 0 0.768 0.020 1.872 0.2 3.28 1.772 3.276 3.652 0 0.196-0.020 0.388-0.064 0.768l-1.988-0.216c0.032-0.288 0.052-0.464 0.052-0.552 0-0.856-0.64-1.568-1.488-1.66-0.088-0.008-0.264-0.008-0.556-0.008h-8.688c-0.292 0-0.468 0-0.556 0.008-0.852 0.092-1.492 0.804-1.488 1.66 0 0.088 0.020 0.264 0.052 0.552l-1.992 0.216z">
      </path>
      <path d="M20 25h-8c-0.552 0-1-0.448-1-1s0.448-1 1-1h8c0.552 0 1 0.448 1 1s-0.448 1-1 1z"></path>
      <path
        d="M19.872 30.332h-7.744c-1.828 0-3.148 0-4.24-0.132-1.272-0.152-2.164-0.488-2.888-1.088-1.496-1.236-1.764-3.136-2.248-6.584l-0.564-4c-0.308-2.184-0.532-3.764-0.52-5.064 0.012-1.54 0.368-2.604 1.148-3.448 0.772-0.832 1.816-1.296 3.396-1.508 1.348-0.18 3.028-0.18 5.352-0.18h8.872c2.324 0 4.004 0 5.352 0.18 1.576 0.208 2.624 0.676 3.396 1.508 0.64 0.688 0.988 1.524 1.104 2.624 0.088 0.852 0.044 1.86-0.152 3.476-0.068 0.548-0.564 0.94-1.112 0.872s-0.94-0.564-0.872-1.112c0.328-2.696 0.224-3.788-0.436-4.5-0.968-1.044-3.076-1.044-7.28-1.044h-8.872c-4.204 0-6.312 0-7.28 1.044-0.904 0.976-0.704 2.708-0.116 6.872l0.564 4c0.46 3.256 0.68 4.608 1.544 5.32 0.92 0.76 2.568 0.76 5.852 0.76h7.744c3.284 0 4.932 0 5.852-0.76 0.864-0.716 1.084-2.064 1.544-5.32l1.984 0.28c-0.484 3.448-0.752 5.344-2.248 6.58-0.724 0.6-1.616 0.936-2.888 1.088-1.096 0.136-2.416 0.136-4.244 0.136z">
      </path>
    </symbol>
    <symbol id="icon-home-smile" viewBox="0 0 32 32">
      <path
        d="M16 23.668c-1.656 0-3.244-0.528-4.596-1.528-0.444-0.328-0.536-0.956-0.208-1.4s0.956-0.536 1.4-0.208c1.004 0.744 2.18 1.136 3.404 1.136s2.4-0.392 3.404-1.136c0.444-0.328 1.068-0.236 1.4 0.208s0.236 1.072-0.208 1.4c-1.352 0.996-2.94 1.528-4.596 1.528z">
      </path>
      <path
        d="M18.668 30.332h-5.336c-2.596 0-4.468 0-5.988-0.212-1.744-0.244-2.924-0.768-3.832-1.708-0.9-0.932-1.408-2.144-1.64-3.932-0.204-1.568-0.204-3.504-0.204-6.184v-2.028c0-3.216 0-4.832 0.816-6.32 0.82-1.496 2.244-2.38 4.836-3.988l2.668-1.656c2.832-1.756 4.252-2.64 6.016-2.64s3.184 0.884 6.016 2.64l2.66 1.656c2.592 1.608 4.016 2.492 4.836 3.988 0.264 0.484 0.088 1.092-0.396 1.356s-1.092 0.088-1.356-0.396c-0.564-1.036-1.76-1.776-4.136-3.248l-2.668-1.656c-2.508-1.556-3.768-2.34-4.96-2.34s-2.452 0.78-4.96 2.34l-2.668 1.656c-2.376 1.476-3.572 2.216-4.136 3.248-0.568 1.040-0.568 2.484-0.568 5.36v2.028c0 4.924 0 7.396 1.28 8.724 1.268 1.312 3.648 1.312 8.384 1.312h5.332c4.74 0 7.12 0 8.384-1.312 1.28-1.324 1.28-3.796 1.28-8.724v-2.028c0-0.552 0.448-1 1-1s1 0.448 1 1v2.028c0 2.68 0 4.616-0.204 6.184-0.232 1.784-0.736 2.996-1.64 3.932-0.904 0.94-2.084 1.468-3.828 1.708-1.52 0.212-3.396 0.212-5.988 0.212z">
      </path>
    </symbol>
    <symbol id="icon-sidebar-collapse" viewBox="0 0 32 32">
      <path
        d="M9.627 19.293l3.293-3.293-3.293-3.293c-0.196-0.183-0.318-0.443-0.318-0.732 0-0.552 0.448-1 1-1 0.289 0 0.549 0.122 0.731 0.318l0.001 0.001 4 4c0.181 0.181 0.292 0.431 0.292 0.707s-0.112 0.526-0.292 0.707v0l-4 4c-0.178 0.166-0.418 0.268-0.682 0.268-0.552 0-1-0.448-1-1 0-0.264 0.102-0.504 0.269-0.682l-0.001 0.001z">
      </path>
      <path
        d="M5 2.667c-1.289 0-2.333 1.045-2.333 2.333v0 22c0 1.288 1.045 2.333 2.333 2.333h22c1.289 0 2.333-1.045 2.333-2.333v0-22c0-1.289-1.045-2.333-2.333-2.333v0h-22zM4.667 5c0-0.184 0.149-0.333 0.333-0.333v0h15v22.667h-15c-0.184 0-0.333-0.149-0.333-0.333v0-22zM22 27.333v-22.667h5c0.184 0 0.333 0.149 0.333 0.333v0 22c0 0.184-0.149 0.333-0.333 0.333v0h-5z">
      </path>
    </symbol>
  </defs>
</svg>